<?xml version="1.0" standalone="no"?><!DOCTYPE svg PUBLIC "-//W3C//DTD SVG 1.1//EN" "http://www.w3.org/Graphics/SVG/1.1/DTD/svg11.dtd"><svg t="1625920611678" class="icon" viewBox="0 0 1024 1024" version="1.1" xmlns="http://www.w3.org/2000/svg" p-id="9954" xmlns:xlink="http://www.w3.org/1999/xlink" width="200" height="200"><defs><style type="text/css"></style></defs><path d="M827.1872 422.8096L451.6864 798.72a31.744 31.744 0 0 0-10.24 23.552l0.7168 111.4112a38.4 38.4 0 0 0 11.5712 27.136 38.912 38.912 0 0 0 27.648 11.264L591.872 972.8a35.7376 35.7376 0 0 0 26.3168-7.9872L993.28 589.312A103.7312 103.7312 0 0 0 991.3344 440.32l-17.8176-17.92a100.7616 100.7616 0 0 0-146.3296 0.4096zM576.1024 922.7264H491.52v-84.7872z m331.776-319.8976L618.1888 892.5184 524.0832 798.72l289.5872-289.9968z m47.3088-126.464a52.9408 52.9408 0 0 1 2.3552 76.8l-13.5168 13.5168-94.1056-94.208 13.5168-13.4144a49.5616 49.5616 0 0 1 73.8304 0zM595.1488 266.24H203.264A27.7504 27.7504 0 0 0 174.08 291.84a27.7504 27.7504 0 0 0 29.184 25.6h391.8848A27.648 27.648 0 0 0 624.64 291.84a27.648 27.648 0 0 0-29.4912-25.6zM482.5088 460.8H203.264a25.8048 25.8048 0 1 0 0 51.2h279.2448a25.8048 25.8048 0 1 0 0-51.2z" p-id="9955"></path><path d="M710.7584 51.2H108.032A108.8512 108.8512 0 0 0 0 159.8464v705.024A108.2368 108.2368 0 0 0 108.032 972.8h265.6256a25.6 25.6 0 1 0 0-51.2H108.032A57.0368 57.0368 0 0 1 51.2 864.8704V159.8464A57.6512 57.6512 0 0 1 108.032 102.4h602.7264A58.0608 58.0608 0 0 1 768 159.8464V378.88a25.6 25.6 0 0 0 50.176 0h1.024V159.8464A109.3632 109.3632 0 0 0 710.7584 51.2z" p-id="9956"></path></svg>