<?xml version="1.0" standalone="no"?><!DOCTYPE svg PUBLIC "-//W3C//DTD SVG 1.1//EN" "http://www.w3.org/Graphics/SVG/1.1/DTD/svg11.dtd"><svg t="1625920549382" class="icon" viewBox="0 0 1092 1024" version="1.1" xmlns="http://www.w3.org/2000/svg" p-id="9110" xmlns:xlink="http://www.w3.org/1999/xlink" width="213.28125" height="200"><defs><style type="text/css"></style></defs><path d="M67.106133 49.902933c16.930133 0 31.675733 10.4448 37.751467 26.146134l2.048 7.031466 0.682667 7.3728v819.063467a24.576 24.576 0 0 0 13.653333 22.050133l4.983467 1.706667 5.7344 0.6144h868.352a40.5504 40.5504 0 0 1 14.404266 78.301867l-7.031466 2.048-7.304534 0.682666H115.712c-42.120533 0-77.824-29.354667-86.971733-69.700266l-1.6384-9.557334-0.546134-9.898666V90.453333C26.624 68.061867 44.714667 49.902933 67.106133 49.902933z m214.016 523.400534c16.930133 0 31.675733 10.4448 37.751467 26.146133l2.048 7.031467 0.682667 7.304533v200.430933a40.5504 40.5504 0 0 1-78.2336 14.336l-2.048-6.9632-0.682667-7.3728V613.853867c0-22.391467 18.090667-40.5504 40.482133-40.5504z m193.877334-136.192c16.930133 0 31.744 10.4448 37.819733 26.146133l2.048 7.031467 0.682667 7.304533v336.622933a40.5504 40.5504 0 0 1-78.301867 14.336l-2.048-6.9632-0.682667-7.3728v-336.554666c0-22.391467 18.158933-40.5504 40.5504-40.5504z m385.2288 0c16.930133 0 31.744 10.4448 37.819733 26.146133l2.048 7.031467 0.682667 7.304533v336.622933a40.5504 40.5504 0 0 1-78.301867 14.336l-2.048-6.9632-0.682667-7.3728v-336.554666c0-22.391467 18.158933-40.5504 40.5504-40.5504zM668.330667 573.303467c16.930133 0 31.744 10.4448 37.819733 26.146133l2.048 7.031467 0.682667 7.304533v200.430933a40.5504 40.5504 0 0 1-78.301867 14.336l-2.048-6.9632-0.682667-7.3728V613.853867c0-22.391467 18.158933-40.5504 40.5504-40.5504z m291.703466-412.603734c10.308267 14.882133 10.24 34.133333 0.2048 49.083734l-4.9152 6.075733-6.007466 5.12-278.9376 194.9696-5.802667 3.208533-7.918933 2.389334-28.398934-1.365334-5.461333-3.618133-4.5056-4.096-152.849067-166.775467-259.413333 178.244267a43.281067 43.281067 0 0 1-49.3568 0.068267l-5.870933-4.778667-4.983467-6.007467a43.2128 43.2128 0 0 1-0.2048-49.083733l4.9152-6.075733 6.144-5.12L439.637333 158.1056a21.7088 21.7088 0 0 1 8.669867-3.618133 43.008 43.008 0 0 1 43.008-3.618134l6.826667 3.959467 6.417066 5.597867 141.789867 164.932266 253.405867-175.445333c19.592533-13.653333 46.557867-8.8064 60.2112 10.786133z" p-id="9111"></path></svg>