<?xml version="1.0" standalone="no"?><!DOCTYPE svg PUBLIC "-//W3C//DTD SVG 1.1//EN" "http://www.w3.org/Graphics/SVG/1.1/DTD/svg11.dtd"><svg t="1627465550806" class="icon" viewBox="0 0 1024 1024" version="1.1" xmlns="http://www.w3.org/2000/svg" p-id="2684" xmlns:xlink="http://www.w3.org/1999/xlink" width="200" height="200"><defs><style type="text/css">@font-face { font-family: feedback-iconfont; src: url("//at.alicdn.com/t/font_1031158_1uhr8ri0pk5.eot?#iefix") format("embedded-opentype"), url("//at.alicdn.com/t/font_1031158_1uhr8ri0pk5.woff2") format("woff2"), url("//at.alicdn.com/t/font_1031158_1uhr8ri0pk5.woff") format("woff"), url("//at.alicdn.com/t/font_1031158_1uhr8ri0pk5.ttf") format("truetype"), url("//at.alicdn.com/t/font_1031158_1uhr8ri0pk5.svg#iconfont") format("svg"); }
</style></defs><path d="M967.799338 1023.345542H558.486292a50.342912 50.342912 0 0 1 0-100.685824h409.313046a50.342912 50.342912 0 0 1 0 100.685824z" fill="#cfab4b" opacity=".82" p-id="2685"></path><path d="M793.278514 159.548159m35.597815 35.597814l0 0q35.597814 35.597814 0 71.195629l0 0q-35.597814 35.597814-71.195629 0l0 0q-35.597814-35.597814 0-71.195629l0 0q35.597814-35.597814 71.195629 0Z" fill="#cfab4b" p-id="2686"></path><path d="M980.712295 126.108994l-82.788919-82.788918a147.857132 147.857132 0 0 0-209.124456 0L65.830556 666.288439A147.529903 147.529903 0 0 0 25.78277 740.040805l-22.452939 105.191515A147.731275 147.731275 0 0 0 178.749708 1020.702539l105.241857-22.452938a147.529903 147.529903 0 0 0 73.702023-40.047787L980.712295 335.233451a148.008161 148.008161 0 0 0 0-209.124457zM263.048914 899.778865l-105.241858 22.452939a47.825766 47.825766 0 0 1-10.068582 1.082372 47.246823 47.246823 0 0 1-45.963079-57.088862l22.452939-105.241857a47.246823 47.246823 0 0 1 12.812271-23.459797l57.894349-57.894349 149.518448 149.518448-57.894348 57.894349a47.246823 47.246823 0 0 1-23.51014 12.736757z m646.478503-635.755463L415.63828 757.93771 266.09466 608.394091 760.008969 114.504953a47.19648 47.19648 0 0 1 66.72953 0l82.788918 82.788919a47.19648 47.19648 0 0 1 0 66.72953z" fill="#DAA520" opacity=".82" p-id="2687"></path></svg>