<?xml version="1.0" standalone="no"?><!DOCTYPE svg PUBLIC "-//W3C//DTD SVG 1.1//EN" "http://www.w3.org/Graphics/SVG/1.1/DTD/svg11.dtd"><svg t="1626079485656" class="icon" viewBox="0 0 1024 1024" version="1.1" xmlns="http://www.w3.org/2000/svg" p-id="24533" xmlns:xlink="http://www.w3.org/1999/xlink" width="200" height="200"><defs><style type="text/css"></style></defs><path d="M512 832c-19.2 0-32-12.8-32-32l0-256C480 524.8 492.8 512 512 512c19.2 0 32 12.8 32 32l0 256C544 819.2 531.2 832 512 832z" p-id="24534"></path><path d="M659.2 684.8 364.8 684.8c-19.2 0-32-12.8-32-32 0-19.2 12.8-32 32-32l300.8 0c19.2 0 32 12.8 32 32C691.2 665.6 678.4 684.8 659.2 684.8z" p-id="24535"></path><path d="M512 576c-6.4 0-19.2 0-25.6-6.4L352 428.8C339.2 416 339.2 396.8 352 384S384 371.2 396.8 384l140.8 140.8c12.8 12.8 12.8 32 0 44.8C531.2 569.6 518.4 576 512 576z" p-id="24536"></path><path d="M512 576c-6.4 0-19.2 0-25.6-6.4-12.8-12.8-12.8-32 0-44.8L627.2 384c12.8-12.8 32-12.8 44.8 0 12.8 12.8 12.8 32 0 44.8L537.6 569.6C531.2 569.6 518.4 576 512 576z" p-id="24537"></path><path d="M864 1024l-704 0C140.8 1024 128 1011.2 128 992L128 467.2 32 467.2C19.2 467.2 6.4 460.8 0 448 0 435.2 0 416 12.8 409.6l480-403.2C505.6 0 518.4 0 531.2 6.4l473.6 396.8C1017.6 416 1024 422.4 1024 435.2c0 19.2-12.8 32-32 32 0 0 0 0 0 0L896 467.2l0 524.8C896 1011.2 883.2 1024 864 1024zM192 960l640 0L832 435.2c0-19.2 12.8-32 32-32l38.4 0L512 76.8 121.6 403.2l38.4 0C179.2 403.2 192 416 192 435.2L192 960z" p-id="24538"></path></svg>