<?xml version="1.0" standalone="no"?><!DOCTYPE svg PUBLIC "-//W3C//DTD SVG 1.1//EN" "http://www.w3.org/Graphics/SVG/1.1/DTD/svg11.dtd"><svg t="1625920221716" class="icon" viewBox="0 0 1074 1024" version="1.1" xmlns="http://www.w3.org/2000/svg" p-id="7586" xmlns:xlink="http://www.w3.org/1999/xlink" width="209.765625" height="200"><defs><style type="text/css"></style></defs><path d="M742.88 891.838H564.838a31.842 31.842 0 0 1-31.924-31.91V583.347c0-0.137-0.26-0.534-0.52-0.534h-83.639c-0.137 0-0.534 0.274-0.534 0.534v276.58a31.842 31.842 0 0 1-31.91 31.911H238.391a96.745 96.745 0 0 1-96.663-96.663v-281.1h-19.42A75.093 75.093 0 0 1 67.787 387.35L393.165 43.757a139.818 139.818 0 0 1 203.187 0l325.24 343.593a75.093 75.093 0 0 1-54.521 126.725h-27.514v281.1a96.759 96.759 0 0 1-96.677 96.663z m-146.131-63.82H742.88a32.87 32.87 0 0 0 32.87-32.87V482.15a31.842 31.842 0 0 1 31.91-31.91h59.438a11.176 11.176 0 0 0 10.381-6.849 11.573 11.573 0 0 0-2.136-12.23L549.801 87.624a75.887 75.887 0 0 0-110.359 0L114.064 431.23a11.285 11.285 0 0 0 8.217 19.01h51.359a31.842 31.842 0 0 1 31.91 31.91v313.024a32.87 32.87 0 0 0 32.87 32.87h146.103V583.347a64.369 64.369 0 0 1 64.369-64.37h83.639a64.369 64.369 0 0 1 64.368 64.37v244.67z m0 0" p-id="7587"></path></svg>