<?xml version="1.0" standalone="no"?><!DOCTYPE svg PUBLIC "-//W3C//DTD SVG 1.1//EN" "http://www.w3.org/Graphics/SVG/1.1/DTD/svg11.dtd"><svg t="1625923218827" class="icon" viewBox="0 0 1024 1024" version="1.1" xmlns="http://www.w3.org/2000/svg" p-id="10748" xmlns:xlink="http://www.w3.org/1999/xlink" width="200" height="200"><defs><style type="text/css"></style></defs><path d="M664.439467 75.093333L682.666667 79.6672c29.559467 9.079467 59.1872 20.48 86.493866 36.386133l18.158934 9.079467-4.5056 18.2272c-11.400533 43.2128 0 90.999467 31.812266 125.1328 31.880533 31.880533 79.6672 45.533867 125.201067 31.880533l18.158933-4.573866 9.147734 18.2272c15.906133 27.306667 27.306667 56.866133 36.386133 86.493866l6.826667 18.158934-18.2272 13.653333c-40.96 22.801067-65.9456 66.013867-65.9456 111.547733a25.258667 25.258667 0 0 1-25.053867 24.9856 25.258667 25.258667 0 0 1-25.053867-24.9856c0-56.9344 27.306667-111.547733 72.840534-143.36a350.139733 350.139733 0 0 0-18.2272-43.281066c-54.613333 9.147733-113.732267-9.079467-152.439467-50.039467-40.96-40.96-59.1872-97.826133-50.039467-152.439467-13.653333-6.826667-29.627733-13.653333-43.281066-18.2272a178.858667 178.858667 0 0 1-143.36 72.840534c-56.866133 0-111.479467-27.306667-143.36-72.840534-13.653333 4.573867-29.559467 11.400533-43.2128 18.2272 9.079467 54.613333-9.079467 113.732267-50.039467 152.439467-31.880533 31.880533-77.4144 50.039467-125.201067 50.039467-9.079467 0-18.158933 0-27.306666-2.2528-6.826667 13.653333-13.653333 29.559467-18.158934 43.2128a178.858667 178.858667 0 0 1 72.772267 143.36c0 56.9344-27.306667 111.547733-72.772267 143.36 4.5056 13.653333 11.332267 29.627733 18.158934 43.281066 54.613333-9.147733 113.800533 9.079467 152.507733 50.039467 40.96 40.96 59.118933 97.826133 50.039467 152.439467 13.653333 6.826667 29.559467 13.653333 43.2128 18.2272a178.858667 178.858667 0 0 1 143.36-72.840534c13.653333 0 25.053867 11.400533 25.053866 25.053867a25.258667 25.258667 0 0 1-25.053866 25.053867c-47.786667 0-88.746667 24.9856-111.479467 65.9456l-9.079467 18.2272-18.2272-6.826667a410.282667 410.282667 0 0 1-86.493866-36.386133l-18.158934-9.147734 4.5056-18.158933c11.400533-43.281067 0-91.067733-31.812266-125.201067-31.880533-31.812267-79.6672-45.4656-125.201067-31.812266l-18.158933 4.5056-9.147734-18.158934A410.282667 410.282667 0 0 1 81.92 682.666667l-6.826667-18.2272 18.2272-9.079467c40.96-22.7328 65.9456-66.013867 65.9456-111.479467 0-47.786667-24.9856-88.746667-65.9456-111.547733L75.093333 423.253333l6.826667-18.2272c9.079467-29.559467 20.48-59.118933 36.386133-86.4256L127.453867 300.373333l18.158933 4.573867c11.400533 2.2528 22.801067 4.5056 34.133333 4.5056 34.133333 0 66.013867-13.653333 88.746667-36.386133 31.880533-31.880533 45.533867-79.6672 31.880533-125.1328l-4.573866-20.48L314.026667 118.306133C341.333333 102.4 370.8928 90.999467 400.520533 81.92l18.158934-6.826667 13.653333 18.2272c22.801067 40.96 63.761067 65.9456 111.547733 65.9456 47.786667 0 88.746667-24.9856 111.479467-65.9456L664.439467 75.093333z m279.893333 821.4528a22.801067 22.801067 0 0 1 0 45.533867h-259.413333a22.801067 22.801067 0 0 1-22.7328-22.7328c-2.2528-11.400533 9.079467-22.801067 22.7328-22.801067h259.413333z m0-118.306133c13.653333 0 22.801067 11.400533 22.801067 22.7328 0 13.653333-11.400533 22.801067-22.801067 22.801067h-259.413333a22.801067 22.801067 0 0 1-22.7328-22.801067c-2.2528-11.332267 9.079467-22.7328 22.7328-22.7328h259.413333zM566.613333 377.719467c90.999467 0 166.0928 75.093333 166.0928 166.161066 0 11.332267 0 22.7328-2.2528 34.133334a25.736533 25.736533 0 0 1-29.559466 20.48 25.736533 25.736533 0 0 1-20.48-29.627734C682.666667 562.039467 682.666667 552.96 682.666667 546.133333c0-63.6928-52.360533-116.053333-116.053334-116.053333-63.6928 0-116.053333 52.360533-116.053333 116.053333 0 63.6928 52.360533 116.053333 116.053333 116.053334 13.653333 0 25.053867 11.400533 25.053867 25.053866 0 11.332267-11.400533 22.7328-25.053867 22.7328a167.048533 167.048533 0 0 1-166.0928-166.0928c0-91.067733 75.093333-166.161067 166.0928-166.161066z m377.719467 282.2144c13.653333 0 22.801067 11.332267 22.801067 22.7328 0 13.653333-11.400533 22.7328-22.801067 22.7328h-259.413333A22.801067 22.801067 0 0 1 662.186667 682.666667c-2.2528-11.400533 9.079467-22.7328 22.7328-22.7328h259.413333z" p-id="10749"></path></svg>